PathFileType	4	(X/Y/Z)	C:/Users/beibeiliu/ov580/test_trc/User2\sequence.17_training_dense_right.trc
DataRate	CameraRate	NumFrames	NumMarkers	Units	OrigDataRate	OrigDataStartFrame	OrigNumFrames
120	120	8	19	mm	120	165	438
Frame#	Time	ThumbCMC			ThumbMCP			ThumbIP			ThumbTip			IndexMCP			IndexPIP			IndexTip			MiddleMCP			MiddlePIP			MiddleTip			RingMCP			RingPIP			RingTip			PinkyMCP			PinkyPIP			PinkyTip			BackHand1			BackHand2			BackHand3	
		X0	Y0	Z0	X1	Y1	Z1	X2	Y2	Z2	X3	Y3	Z3	X4	Y4	Z4	X5	Y5	Z5	X6	Y6	Z6	X7	Y7	Z7	X8	Y8	Z8	X9	Y9	Z9	X10	Y10	Z10	X11	Y11	Z11	X12	Y12	Z12	X13	Y13	Z13	X14	Y14	Z14	X15	Y15	Z15	X16	Y16	Z16	X17	Y17	Z17	X18	Y18	Z18	
164	1.36667	47.0961	9.92336	59.012	21.537	2.58622	31.9338	16.0526	-2.14872	-5.43046	32.4093	-8.21763	-24.5204	53.199	49.9261	-16.8411	39.2251	30.3134	-41.994	35.1148	2.94794	-23.6638	68.8165	48.3491	-29.645	56.7444	24.6017	-52.7246	52.1359	-6.05899	-25.6794	88.0106	35.05	-33.5837	75.0086	13.8467	-51.63	67.7562	-11.06	-24.7817	107.046	19.1068	-24.2187	90.3102	0.140125	-47.2416	77.0592	-23.935	-22.4714	110.333	31.1063	27.1771	118.963	20.5844	60.1234	79.5056	35.0065	54.3465	
165	1.375	52.3802	10.8302	56.063	27.6155	2.41023	25.8189	21.839	-2.76912	-13.1223	44.1436	-8.34222	-31.1456	59.7007	49.3661	-20.1925	50.6336	28.8625	-47.5535	43.0585	2.18523	-28.8452	84.6559	45.0466	-31.2772	70.4232	20.282	-56.7321	63.24	-7.77834	-29.7665	101.271	32.024	-35.8945	84.7742	15.1568	-54.1439	78.0889	-12.5382	-28.111	112.027	17.7697	-27.6972	97.6877	0.355037	-46.7773	86.9134	-25.4945	-24.2217	115.134	29.6281	29.3383	123.176	20.343	56.3055	84.9193	36.1009	49.9184	
166	1.38333	56.0796	11.5459	46.3668	35.1852	1.50712	19.018	28.1531	-7.63601	-13.2027	48.499	-13.2718	-33.918	72.9267	43.2058	-27.8877	63.4984	22.4169	-52.5942	52.4098	-3.2246	-32.6376	90.466	42.1567	-38.7538	77.9632	16.8508	-61.6204	67.6517	-10.6	-32.3161	109.988	27.2139	-37.9703	97.9684	4.07265	-57.6475	85.9374	-16.8232	-31.4405	122.657	11.4302	-24.8729	109.15	-8.56432	-48.9537	94.343	-24.8698	-26.0227	119.402	26.8818	22.4968	126.232	19.1526	53.2182	90.3012	36.7388	45.3831	
167	1.39167	57.3397	8.1576	44.8288	39.0716	-3.18101	16.8003	35.4237	-12.8385	-22.2451	54.8784	-22.17	-37.8029	75.2645	38.2918	-34.6598	69.8672	17.2846	-58.5796	61.6226	-12.4055	-33.6993	97.0034	35.0723	-42.205	89.3053	9.52496	-65.892	78.3288	-20.0769	-35.798	117.853	19.2847	-40.9669	103.569	-4.28671	-60.6166	94.4448	-24.936	-33.3831	132.61	3.83048	-29.0798	116.19	-14.5559	-49.6316	103.745	-33.7816	-26.3663	125.747	22.2157	19.1695	131.521	17.6909	53.2194	96.155	34.1216	39.9721	
168	1.4	59.8009	3.67208	44.1821	44.7852	-8.76343	13.936	40.854	-20.2688	-17.9677	58.7891	-28.457	-38.0922	79.4412	29.2759	-35.7101	76.164	4.01642	-60.168	66.5874	-20.0278	-37.5252	102.019	26.5515	-43.809	93.9491	0.597567	-68.7198	85.2484	-27.3367	-39.7238	124.122	10.8486	-44.0212	110.416	-15.8817	-62.1893	96.5287	-32.1782	-32.1847	138.551	-3.22557	-34.5013	119.821	-23.4347	-50.1714	107.477	-43.3323	-28.9039	130.738	18.6835	18.7928	132.103	16.9558	48.4994	99.5469	27.9694	38.5299	
169	1.40833	63.1713	0.431504	42.6865	42.6799	-13.3962	14.2934	39.4105	-26.7415	-16.9761	57.2506	-37.2659	-42.8279	83.3159	19.5717	-42.9767	75.3661	-1.96713	-61.514	66.6388	-27.3591	-38.93	102.005	19.2933	-46.552	91.8503	-11.4327	-68.9343	84.3019	-35.5188	-37.6257	122.309	4.84001	-44.8132	110.462	-21.6488	-62.6516	97.9392	-39.1593	-32.3534	139.068	-8.45255	-35.2448	125.813	-29.1939	-52.2423	106.972	-48.2471	-27.2119	132.866	15.6305	14.7471	131.183	12.5211	51.243	99.4073	23.8441	36.2648	
170	1.41667	63.1612	-3.20036	39.6404	39.4667	-19.0334	16.3439	35.9675	-33.1766	-19.0639	54.9273	-42.9282	-35.3676	77.8464	14.5595	-39.4012	72.3717	-8.98084	-60.6743	64.5669	-35.4872	-31.0686	100.495	11.1806	-48.4973	87.3475	-19.8197	-67.3015	82.5836	-41.735	-34.0985	116.041	0.271962	-45.8959	108.448	-23.6714	-63.6135	97.1407	-46.9681	-33.4709	134.212	-11.9856	-33.8113	118.322	-36.0354	-51.9282	107.132	-56.5705	-26.8466	129.401	10.3392	12.4011	131.135	11.7634	47.5029	98.8208	20.1975	35.4916	
171	1.425	56.0818	-6.18333	43.6543	37.9242	-21.9136	22.4921	33.661	-36.8271	-12.1969	48.7178	-46.5627	-31.9599	67.709	10.4497	-38.9981	62.2876	-16.1983	-57.6348	57.0252	-39.3089	-28.805	88.7578	6.85798	-50.3141	80.9141	-25.1609	-65.5372	75.0294	-47.8203	-32.1585	110.401	-3.82393	-45.0855	95.6606	-29.5846	-61.5906	90.0638	-51.9007	-31.1981	125.294	-13.6666	-36.4168	111.774	-36.3239	-53.2275	98.3383	-59.2835	-27.1485	121.43	8.84509	13.9438	128.373	9.13371	44.1272	90.1212	20.3356	36.7717	
